<!--?xml version="1.0" standalone="no"?-->
              <svg id="sw-js-blob-svg" viewBox="0 0 100 100" xmlns="http://www.w3.org/2000/svg" version="1.1">
                    <defs> 
                        <linearGradient id="sw-gradient" x1="0" x2="1" y1="1" y2="0">
                            <stop id="stop1" stop-color="rgba(45.922, 52.437, 29.919, 1)" offset="0%"></stop>
                            <stop id="stop2" stop-color="rgba(165.499, 195.377, 1.172, 1)" offset="100%"></stop>
                        </linearGradient>
                    </defs>
                <path fill="url(#sw-gradient)" d="M21.4,-34.9C28.3,-33,35,-28.6,38.5,-22.3C42.1,-16,42.4,-8,41.9,-0.3C41.4,7.4,39.9,14.8,36.4,21.1C32.9,27.3,27.3,32.4,20.9,36.2C14.5,40,7.2,42.4,0.3,41.9C-6.6,41.4,-13.2,37.9,-19.2,33.8C-25.2,29.8,-30.6,25.3,-35,19.6C-39.4,13.8,-42.9,6.9,-41.9,0.6C-40.9,-5.8,-35.4,-11.5,-31.6,-18.3C-27.8,-25,-25.6,-32.8,-20.6,-35.8C-15.6,-38.8,-7.8,-37.1,-0.3,-36.6C7.2,-36.1,14.4,-36.8,21.4,-34.9Z" width="100%" height="100%" transform="translate(50 50)" stroke-width="0" style="transition: all 0.3s ease 0s;"></path>
              </svg>