<!--?xml version="1.0" standalone="no"?-->
              <svg id="sw-js-blob-svg" viewBox="0 0 100 100" xmlns="http://www.w3.org/2000/svg" version="1.1">
                    <defs> 
                        <linearGradient id="sw-gradient" x1="0" x2="1" y1="1" y2="0">
                            <stop id="stop1" stop-color="rgba(32.836, 68.375, 41.288, 1)" offset="0%"></stop>
                            <stop id="stop2" stop-color="rgba(0, 166.277, 50.81, 1)" offset="100%"></stop>
                        </linearGradient>
                    </defs>
                <path fill="url(#sw-gradient)" d="M23,-31.6C30.9,-26,39.1,-20.7,42.1,-13.3C45.1,-5.9,42.8,3.7,39.6,12.6C36.3,21.6,32.1,30,25.4,34.8C18.6,39.6,9.3,40.9,0.2,40.6C-8.9,40.4,-17.9,38.7,-24.3,33.7C-30.6,28.8,-34.4,20.6,-37.4,12C-40.3,3.5,-42.3,-5.5,-40.7,-14C-39,-22.6,-33.6,-30.7,-26.2,-36.5C-18.8,-42.4,-9.4,-45.9,-0.9,-44.6C7.6,-43.3,15.1,-37.3,23,-31.6Z" width="100%" height="100%" transform="translate(50 50)" stroke-width="0" style="transition: all 0.3s ease 0s;"></path>
              </svg>