<!--?xml version="1.0" standalone="no"?-->
              <svg id="sw-js-blob-svg" viewBox="0 0 100 100" xmlns="http://www.w3.org/2000/svg" version="1.1">
                    <defs> 
                        <linearGradient id="sw-gradient" x1="0" x2="1" y1="1" y2="0">
                            <stop id="stop1" stop-color="rgba(92.206, 141.866, 255, 1)" offset="0%"></stop>
                            <stop id="stop2" stop-color="rgba(64.57, 200.428, 64.666, 1)" offset="100%"></stop>
                        </linearGradient>
                    </defs>
                <path fill="url(#sw-gradient)" d="M22.7,-23.6C30.2,-20.7,37.7,-14.3,38.4,-7.2C39.1,-0.1,33.1,7.8,27.9,15.3C22.6,22.9,18.1,30.1,12.1,31.5C6.1,32.9,-1.3,28.4,-9.7,25.7C-18.1,23.1,-27.4,22.1,-32.9,16.9C-38.4,11.7,-40.1,2.1,-37.9,-6C-35.6,-14.2,-29.5,-21,-22.5,-24C-15.5,-27,-7.8,-26.2,-0.1,-26.1C7.6,-26,15.1,-26.5,22.7,-23.6Z" width="100%" height="100%" transform="translate(50 50)" stroke-width="0" style="transition: all 0.3s ease 0s;"></path>
              </svg>